<svg width="276" height="277" viewBox="0 0 276 277" fill="none" xmlns="http://www.w3.org/2000/svg">
<g clip-path="url(#clip0_324_80)">
<path d="M44.6365 214.135L59.9789 248.704H52.7933L42.3546 221.903L44.6365 214.135ZM34.1979 245.451C33.9388 246.098 33.8904 246.648 34.0522 247.102C34.2139 247.555 34.4891 247.903 34.8776 248.146C35.2659 248.388 35.6544 248.51 36.0429 248.51H36.4798V248.995H26.2837V248.51H26.7209C27.4653 248.51 28.2339 248.275 29.027 247.806C29.8201 247.336 30.4756 246.551 30.9932 245.451H34.1979ZM44.6365 214.135L44.8793 219.233L32.7898 248.85H29.4884L42.0148 220.058C42.0795 219.929 42.2171 219.613 42.4272 219.111C42.6377 218.61 42.8805 218.035 43.1556 217.388C43.4308 216.74 43.6654 216.117 43.8595 215.518C44.0539 214.92 44.167 214.458 44.1996 214.135H44.6365ZM50.317 236.857V238.702H35.7028V236.857H50.317ZM51.5309 245.451H58.5224C59.0403 246.551 59.6958 247.336 60.4887 247.806C61.2817 248.275 62.0506 248.51 62.795 248.51H63.1833V248.995H49.249V248.51H49.6859C50.3009 248.51 50.8512 248.243 51.3366 247.708C51.8221 247.174 51.8868 246.422 51.5309 245.451Z" fill="#014379"/>
<path d="M87.2161 214.329C87.8311 214.329 88.5594 214.361 89.4009 214.426C90.2427 214.491 91.0923 214.58 91.9501 214.693C92.8076 214.806 93.5765 214.919 94.2562 215.033C94.9359 215.146 95.4052 215.267 95.6643 215.397L95.2758 221.563H94.7902C94.7902 219.912 94.1996 218.601 93.018 217.63C91.8367 216.659 90.3074 216.174 88.43 216.174C86.5527 216.174 85.0557 216.659 83.9388 217.63C82.8222 218.601 82.2477 219.783 82.2153 221.175C82.1506 221.984 82.3853 222.769 82.9193 223.529C83.4535 224.29 84.1734 224.994 85.0799 225.641L94.4503 232.584C95.7774 233.458 96.7485 234.518 97.3635 235.764C97.9785 237.011 98.2537 238.411 98.189 239.964C98.0919 242.942 97.0155 245.305 94.9601 247.053C92.9049 248.801 90.113 249.675 86.585 249.675C85.3874 249.675 84.1656 249.569 82.9193 249.359C81.6732 249.149 80.5321 248.825 79.4963 248.388C78.4607 247.951 77.6352 247.425 77.0202 246.81C76.8261 246.163 76.7451 245.378 76.7774 244.455C76.8098 243.533 76.9392 242.578 77.1659 241.591C77.3924 240.604 77.6676 239.77 77.9914 239.09H78.4283C78.2989 240.741 78.5738 242.238 79.2537 243.581C79.9334 244.925 80.9285 245.977 82.2395 246.737C83.5506 247.498 85.0959 247.862 86.8762 247.83C88.883 247.765 90.4934 247.198 91.7073 246.13C92.921 245.062 93.5278 243.686 93.5278 242.003C93.5278 241.032 93.269 240.15 92.7511 239.357C92.2331 238.564 91.424 237.844 90.3234 237.197L81.5356 230.545C80.0466 229.574 78.9865 228.401 78.3554 227.025C77.7241 225.65 77.4571 224.217 77.5542 222.728C77.6513 221.175 78.0884 219.758 78.8652 218.48C79.642 217.201 80.7344 216.19 82.1425 215.446C83.5506 214.701 85.2417 214.329 87.2161 214.329ZM95.7127 214.814L95.6643 215.834H90.6149V214.814H95.7127Z" fill="#014379"/>
<path d="M124.553 215.008V248.995H118.629V215.008H124.553ZM137.419 247.101L138.244 248.995H124.407V247.101H137.419ZM140.818 239.77L138.39 248.995H129.311L131.059 247.101C132.709 247.101 134.134 246.802 135.331 246.203C136.529 245.604 137.532 244.747 138.341 243.63C139.151 242.513 139.814 241.226 140.332 239.77H140.818ZM118.775 245.451V248.995H114.891V248.509H115.522C116.363 248.509 117.084 248.21 117.683 247.611C118.281 247.012 118.597 246.292 118.629 245.451H118.775ZM118.775 218.553H118.629C118.597 217.711 118.281 216.991 117.683 216.392C117.084 215.793 116.363 215.494 115.522 215.494H114.891V215.008H118.775V218.553ZM124.407 218.553V215.008H128.291V215.494H127.66C126.818 215.494 126.098 215.793 125.499 216.392C124.901 216.991 124.585 217.711 124.553 218.553H124.407Z" fill="#014379"/>
<path d="M171.018 214.135L186.36 248.704H179.174L168.736 221.903L171.018 214.135ZM160.579 245.451C160.32 246.098 160.271 246.648 160.433 247.102C160.595 247.555 160.87 247.903 161.259 248.146C161.647 248.388 162.035 248.51 162.424 248.51H162.861V248.995H152.665V248.51H153.102C153.846 248.51 154.615 248.275 155.408 247.806C156.201 247.336 156.857 246.551 157.375 245.451H160.579ZM171.018 214.135L171.26 219.233L159.171 248.85H155.869L168.396 220.058C168.461 219.929 168.598 219.613 168.809 219.111C169.019 218.61 169.262 218.035 169.537 217.388C169.812 216.74 170.047 216.117 170.241 215.518C170.435 214.92 170.548 214.458 170.581 214.135H171.018ZM176.698 236.857V238.702H162.084V236.857H176.698ZM177.912 245.451H184.903C185.421 246.551 186.077 247.336 186.87 247.806C187.663 248.275 188.432 248.51 189.176 248.51H189.565V248.995H175.63V248.51H176.067C176.682 248.51 177.232 248.243 177.718 247.708C178.203 247.174 178.268 246.422 177.912 245.451Z" fill="#014379"/>
<path d="M237.826 214.329L238.214 218.941L224.522 244.625C224.522 244.625 224.377 244.908 224.085 245.475C223.794 246.041 223.503 246.729 223.211 247.538C222.92 248.348 222.758 249.124 222.726 249.869H222.241L220.735 246.033L237.826 214.329ZM205.927 245.451V248.995H200.538V248.509H201.315C202.188 248.509 202.965 248.242 203.645 247.708C204.325 247.174 204.729 246.422 204.859 245.451H205.927ZM207.82 246.227V246.47C207.82 246.988 208.007 247.465 208.379 247.903C208.751 248.339 209.196 248.558 209.714 248.558H210.442V248.995H207.481V246.227H207.82ZM208.743 214.329H209.229L210.685 218.553L207.529 248.995H204.422L208.743 214.329ZM209.229 214.329L224.474 241.809L222.241 249.869L208.063 223.796L209.229 214.329ZM238.263 214.329L242.729 248.995H236.272L233.747 224.33L237.826 214.329H238.263ZM241.224 245.451H242.292C242.454 246.422 242.867 247.174 243.531 247.708C244.194 248.242 244.963 248.509 245.837 248.509H246.613V248.995H241.224V245.451ZM235.981 246.227H236.321V248.995H233.359V248.558H234.087C234.637 248.558 235.091 248.339 235.447 247.903C235.803 247.465 235.981 246.988 235.981 246.47V246.227Z" fill="#014379"/>
<path fill-rule="evenodd" clip-rule="evenodd" d="M209.989 70.7808C209.989 70.7808 209.325 71.9359 207.701 74.1924C206.659 75.6412 205.664 77.1102 204.047 78.9333C203.211 79.8772 202.351 80.7355 201.325 81.6093C200.696 82.1443 200.047 82.6617 199.325 83.0803C198.6 83.5006 197.83 83.8092 197.05 84.0861C195.762 84.5429 194.588 84.8114 193.341 85.095C191.876 85.4284 190.727 85.6203 189.458 85.8088C185.544 86.3904 183.408 86.4967 183.408 86.4967C183.408 86.4967 184.531 84.6771 186.927 81.527C187.704 80.5064 188.425 79.5923 189.424 78.4688C190.273 77.5135 191.074 76.6139 192.095 75.7062C192.714 75.1554 193.355 74.6303 194.073 74.1975C194.788 73.7662 195.554 73.4467 196.326 73.154C197.586 72.676 198.752 72.3364 199.982 72.058C202.359 71.5204 204.125 71.3566 205.898 71.1413C208.657 70.8063 209.989 70.7808 209.989 70.7808ZM203.98 94.3785C203.98 94.3785 203.019 94.591 201.123 94.8391C199.889 95.0006 198.596 95.1978 196.899 95.2648C196.002 95.3002 195.12 95.286 194.164 95.206C193.572 95.1563 192.977 95.0888 192.394 94.9456C191.808 94.8022 191.25 94.5892 190.701 94.3569C189.809 93.979 189.039 93.5577 188.246 93.1202C187.324 92.6122 186.595 92.1611 185.84 91.675C183.538 90.194 182.295 89.2371 182.295 89.2371C182.295 89.2371 183.835 88.9401 186.557 88.6502C187.45 88.5551 188.304 88.4792 189.356 88.439C190.261 88.4043 191.138 88.3735 192.105 88.4364C192.699 88.4749 193.294 88.5355 193.882 88.67C194.467 88.8043 195.029 89.0109 195.581 89.2323C196.47 89.5897 197.265 89.9734 198.051 90.4075C199.537 91.2289 200.604 91.9858 201.634 92.6838C203.217 93.7571 203.98 94.3785 203.98 94.3785ZM188.08 101.219C188.08 101.219 187.626 101.009 186.727 100.479C186.15 100.137 185.567 99.8144 184.831 99.2712C184.45 98.9902 184.1 98.6975 183.738 98.3431C183.516 98.1261 183.301 97.9009 183.12 97.6446C182.938 97.3878 182.796 97.1103 182.666 96.8278C182.451 96.3618 182.311 95.9315 182.162 95.475C181.988 94.9385 181.877 94.5151 181.763 94.0471C181.412 92.6031 181.299 91.808 181.299 91.808C181.299 91.808 182.018 92.1667 183.276 92.9567C183.684 93.2127 184.051 93.4519 184.504 93.7875C184.891 94.073 185.254 94.3426 185.628 94.6937C185.855 94.9066 186.073 95.1288 186.259 95.3825C186.445 95.6353 186.591 95.9112 186.726 96.1899C186.948 96.6449 187.115 97.0698 187.261 97.5205C187.543 98.3908 187.665 99.0463 187.806 99.7015C188.025 100.722 188.08 101.219 188.08 101.219ZM184.69 49.3359C184.69 49.3359 185.346 50.4956 186.462 53.0415C187.178 54.6763 187.937 56.2805 188.683 58.5996C189.07 59.8003 189.371 60.9771 189.601 62.3051C189.742 63.1183 189.857 63.9405 189.849 64.7756C189.842 65.6138 189.716 66.4326 189.557 67.2458C189.295 68.5863 188.929 69.734 188.539 70.9513C188.08 72.3825 187.66 73.4691 187.177 74.6568C185.685 78.3229 184.69 80.215 184.69 80.215C184.69 80.215 183.694 78.3229 182.203 74.6568C181.719 73.4689 181.3 72.3825 180.841 70.9513C180.451 69.734 180.084 68.5863 179.822 67.2458C179.663 66.4326 179.537 65.6138 179.53 64.7756C179.523 63.9405 179.637 63.1183 179.778 62.3051C180.008 60.9771 180.309 59.8006 180.696 58.5996C181.443 56.2805 182.201 54.6763 182.917 53.0415C184.034 50.4956 184.69 49.3359 184.69 49.3359ZM152.431 49.4636C152.431 49.4636 153.752 49.6391 156.456 50.2834C158.192 50.6969 159.929 51.0592 162.23 51.8614C163.421 52.2767 164.541 52.7457 165.74 53.3627C166.473 53.7405 167.199 54.1443 167.86 54.6536C168.525 55.1647 169.102 55.7588 169.655 56.3758C170.567 57.3928 171.262 58.377 171.998 59.4223C172.863 60.651 173.477 61.6407 174.134 62.7426C176.16 66.1426 177.07 68.0773 177.07 68.0773C177.07 68.0773 174.96 67.7308 171.135 66.7113C169.896 66.3808 168.777 66.0606 167.358 65.5641C166.151 65.1417 165.015 64.7425 163.787 64.1435C163.043 63.78 162.313 63.3866 161.64 62.8873C160.969 62.39 160.383 61.8028 159.819 61.2C158.898 60.2161 158.14 59.2666 157.415 58.2343C156.015 56.2403 155.192 54.6684 154.319 53.1113C152.961 50.6862 152.431 49.4636 152.431 49.4636ZM149.591 177.092C149.591 177.092 149.284 176.569 148.774 175.486C148.443 174.783 148.083 174.062 147.723 173.065C147.534 172.541 147.378 172.018 147.248 171.437C147.168 171.078 147.099 170.714 147.078 170.342C147.057 169.969 147.083 169.6 147.124 169.233C147.189 168.635 147.304 168.105 147.425 167.555C147.566 166.914 147.706 166.405 147.864 165.868C148.347 164.226 148.7 163.325 148.7 163.325C148.7 163.325 149.166 164.173 149.857 165.739C150.083 166.251 150.287 166.738 150.51 167.356C150.7 167.886 150.882 168.396 151.025 168.981C151.112 169.34 151.186 169.702 151.213 170.075C151.24 170.446 151.218 170.816 151.185 171.183C151.131 171.775 151.044 172.314 150.924 172.858C150.695 173.893 150.431 174.655 150.194 175.394C149.828 176.534 149.591 177.092 149.591 177.092ZM116.579 132.063C116.579 132.063 117.996 132.229 120.902 132.875C122.768 133.289 124.633 133.649 127.11 134.471C128.392 134.896 129.599 135.38 130.892 136.021C131.684 136.414 132.467 136.834 133.184 137.369C133.903 137.905 134.531 138.532 135.134 139.184C136.126 140.258 136.886 141.3 137.691 142.408C138.638 143.71 139.311 144.759 140.032 145.928C142.256 149.536 143.262 151.592 143.262 151.592C143.262 151.592 140.997 151.256 136.886 150.226C135.554 149.892 134.35 149.568 132.823 149.059C131.524 148.626 130.3 148.217 128.976 147.596C128.173 147.219 127.386 146.81 126.657 146.286C125.931 145.764 125.293 145.145 124.68 144.509C123.677 143.47 122.851 142.466 122.058 141.372C120.526 139.26 119.62 137.591 118.66 135.937C117.166 133.363 116.579 132.063 116.579 132.063ZM121.221 159.969C121.221 159.969 121.995 159.259 123.771 157.941C124.909 157.096 126.009 156.229 127.673 155.241C128.533 154.73 129.387 154.292 130.373 153.882C130.976 153.631 131.591 153.399 132.237 153.261C132.885 153.122 133.54 153.079 134.195 153.064C135.278 153.037 136.225 153.127 137.234 153.223C138.422 153.335 139.331 153.476 140.334 153.65C143.435 154.189 145.061 154.64 145.061 154.64C145.061 154.64 143.782 155.742 141.205 157.549C140.372 158.134 139.61 158.648 138.583 159.256C137.711 159.772 136.891 160.256 135.901 160.694C135.301 160.959 134.691 161.199 134.045 161.349C133.401 161.499 132.746 161.551 132.094 161.581C131.027 161.63 130.067 161.597 129.072 161.501C127.146 161.315 125.782 160.999 124.392 160.719C122.224 160.282 121.221 159.969 121.221 159.969ZM137.044 173.48C137.044 173.48 137.092 172.691 137.332 171.135C137.487 170.127 137.622 169.085 137.964 167.736C138.143 167.028 138.357 166.349 138.644 165.624C138.822 165.177 139.014 164.732 139.266 164.315C139.518 163.897 139.82 163.519 140.136 163.154C140.651 162.557 141.168 162.074 141.708 161.571C142.338 160.984 142.867 160.542 143.439 160.081C145.19 158.669 146.239 157.968 146.239 157.968C146.239 157.968 146.128 159.225 145.73 161.439C145.6 162.162 145.466 162.838 145.254 163.672C145.072 164.388 144.896 165.073 144.619 165.812C144.45 166.264 144.264 166.711 144.018 167.133C143.773 167.554 143.476 167.935 143.168 168.306C142.67 168.906 142.177 169.42 141.642 169.917C140.622 170.864 139.773 171.482 138.964 172.102C137.713 173.06 137.044 173.48 137.044 173.48ZM130.973 110.246C130.973 110.246 132.028 111.207 134.014 113.424C135.289 114.848 136.596 116.227 138.131 118.337C138.925 119.429 139.625 120.526 140.302 121.8C140.717 122.58 141.109 123.379 141.38 124.231C141.653 125.086 141.798 125.961 141.908 126.841C142.089 128.293 142.1 129.583 142.11 130.951C142.121 132.561 142.057 133.807 141.962 135.176C141.669 139.405 141.288 141.662 141.288 141.662C141.288 141.662 139.644 140.069 136.901 136.838C136.013 135.791 135.223 134.826 134.278 133.523C133.474 132.415 132.718 131.37 132.004 130.093C131.57 129.319 131.169 128.528 130.881 127.678C130.595 126.831 130.437 125.956 130.309 125.082C130.099 123.654 130.012 122.356 130.005 121.005C129.99 118.396 130.225 116.511 130.408 114.608C130.693 111.645 130.973 110.246 130.973 110.246ZM169.298 69.6314C168.567 68.1973 172.46 69.704 174.008 70.1419C176.375 70.8114 176.682 71.3829 176.75 71.4173L179.164 76.1584C181.199 80.1561 181.18 84.8901 179.113 88.8713L152.247 140.614C150.947 143.119 150.935 146.098 152.215 148.613L158.1 160.171C158.796 161.539 160.202 162.401 161.737 162.401H166.384C167.398 162.401 168.34 161.874 168.87 161.009C169.4 160.145 169.443 159.066 168.982 158.162L163.893 148.166C162.454 145.341 162.454 141.997 163.893 139.171L166.556 133.942C167.849 131.401 170.46 129.8 173.311 129.8C176.162 129.8 178.772 131.401 180.066 133.942L195.366 163.994C196.096 165.428 195.525 167.185 194.091 167.915C192.657 168.645 190.9 168.073 190.17 166.639L174.87 136.587C174.571 136.001 173.969 135.631 173.311 135.631C172.653 135.631 172.051 136.001 171.752 136.587L169.089 141.817C168.497 142.981 168.497 144.357 169.089 145.521L174.179 155.517C175.559 158.228 175.431 161.463 173.841 164.057C172.251 166.651 169.427 168.232 166.384 168.232H161.737C158.008 168.232 154.595 166.14 152.903 162.817L147.019 151.259C144.885 147.067 144.905 142.102 147.072 137.927L173.938 86.1843C175.138 83.8731 175.149 81.1247 173.968 78.8041L169.298 69.6314ZM129.296 81.4317L89.1588 160.268C86.6711 165.155 81.6515 168.232 76.168 168.232H65.8239C64.8096 168.232 63.8683 167.705 63.3381 166.84C62.808 165.976 62.7654 164.898 63.2255 163.994L114.499 63.2842C114.775 62.7418 114.749 62.095 114.431 61.5763C114.113 61.0573 113.548 60.7412 112.94 60.7412H103.78C102.171 60.7412 100.864 59.4347 100.864 57.8257C100.864 56.2163 102.171 54.9099 103.78 54.9099H112.94C115.577 54.9099 118.024 56.2805 119.403 58.5285C120.781 60.7768 120.891 63.5797 119.695 65.9297L70.5798 162.401H76.168C79.458 162.401 82.4698 160.555 83.9625 157.623L131.287 64.6681C132.581 62.1271 135.191 60.5269 138.042 60.5269C140.894 60.5269 143.504 62.1271 144.798 64.6681L157.641 89.8934C159.079 92.7192 159.079 96.0627 157.641 98.8886L154.667 104.729C153.374 107.27 150.764 108.87 147.912 108.87C145.061 108.87 142.45 107.27 141.157 104.729L129.296 81.4317ZM132.568 75.0056L146.353 102.083C146.652 102.669 147.254 103.038 147.912 103.038C148.57 103.038 149.172 102.669 149.471 102.083L152.444 96.2429C153.037 95.0794 153.037 93.7026 152.444 92.5391L139.602 67.3138C139.303 66.7273 138.701 66.3582 138.042 66.3582C137.385 66.3582 136.782 66.7273 136.484 67.3138L132.568 75.0056Z" fill="#014379"/>
</g>
<defs>
<clipPath id="clip0_324_80">
<rect width="275.144" height="275.399" fill="white" transform="translate(-0.00488281 0.739746)"/>
</clipPath>
</defs>
</svg>
